{
	"asset":{
		"generator":"Khronos glTF Blender I/O v3.5.30",
		"version":"2.0"
	},
	"extensionsUsed":[
		"KHR_materials_emissive_strength",
		"KHR_materials_transmission",
		"KHR_materials_ior"
	],
	"scene":0,
	"scenes":[
		{
			"name":"Scene",
			"nodes":[
				0,
				1,
				2,
				3,
				4,
				5,
				6,
				7,
				8,
				9,
				10,
				11,
				12,
				13
			]
		}
	],
	"nodes":[
		{
			"mesh":0,
			"name":"Circle"
		},
		{
			"mesh":1,
			"name":"Icosphere",
			"translation":[
				0,
				0.37598010897636414,
				0
			]
		},
		{
			"mesh":2,
			"name":"Circle.001",
			"scale":[
				1.4193159341812134,
				1.4193159341812134,
				1.4193159341812134
			],
			"translation":[
				0,
				0.29290181398391724,
				0
			]
		},
		{
			"mesh":3,
			"name":"Circle.002",
			"translation":[
				0,
				0.6129720211029053,
				0
			]
		},
		{
			"mesh":4,
			"name":"Cylinder",
			"rotation":[
				0,
				0.17622582614421844,
				0,
				0.9843498468399048
			]
		},
		{
			"name":"tube c"
		},
		{
			"mesh":5,
			"name":"Cube",
			"rotation":[
				0,
				0.21558760106563568,
				0,
				0.9764845967292786
			]
		},
		{
			"name":"FLA C",
			"rotation":[
				0,
				0.3826834559440613,
				0,
				0.9238795638084412
			]
		},
		{
			"mesh":6,
			"name":"Cylinder.001",
			"rotation":[
				0,
				0.15557248890399933,
				0,
				0.987824559211731
			],
			"translation":[
				0,
				0.2978862226009369,
				0
			]
		},
		{
			"name":"POLE",
			"rotation":[
				0,
				0.034027349203825,
				0,
				0.9994208812713623
			],
			"translation":[
				0,
				0.2978862226009369,
				0
			]
		},
		{
			"mesh":7,
			"name":"Icosphere.001",
			"scale":[
				1.0039589405059814,
				1.0039589405059814,
				1.0039589405059814
			],
			"translation":[
				0,
				0.37598010897636414,
				0
			]
		},
		{
			"mesh":8,
			"name":"BezierCircle",
			"scale":[
				1.2229362726211548,
				1.2229362726211548,
				1.2229362726211548
			],
			"translation":[
				0,
				0.11297552287578583,
				0
			]
		},
		{
			"mesh":9,
			"name":"BezierCircle.001",
			"scale":[
				1.6021486520767212,
				1.6021486520767212,
				1.6021486520767212
			],
			"translation":[
				0,
				0.3826708495616913,
				0
			]
		},
		{
			"mesh":10,
			"name":"BezierCircle.002",
			"scale":[
				0.8400318622589111,
				0.8400318622589111,
				0.8400318622589111
			],
			"translation":[
				0,
				-0.0294913649559021,
				0
			]
		}
	],
	"materials":[
		{
			"alphaMode":"BLEND",
			"doubleSided":true,
			"emissiveFactor":[
				1,
				0.001012412249110639,
				0
			],
			"extensions":{
				"KHR_materials_emissive_strength":{
					"emissiveStrength":50
				}
			},
			"name":"Material.001",
			"pbrMetallicRoughness":{
				"baseColorFactor":[
					0,
					0,
					0,
					1
				]
			}
		},
		{
			"doubleSided":true,
			"extensions":{
				"KHR_materials_transmission":{
					"transmissionFactor":1
				},
				"KHR_materials_ior":{
					"ior":1.4500000476837158
				}
			},
			"name":"Material.003",
			"pbrMetallicRoughness":{
				"baseColorFactor":[
					0.7991029620170593,
					0.7991029620170593,
					0.7991029620170593,
					1
				],
				"metallicFactor":0.024169184267520905,
				"roughnessFactor":0.025737103074789047
			}
		},
		{
			"doubleSided":true,
			"emissiveFactor":[
				0.7226777076721191,
				1,
				0.4080982208251953
			],
			"extensions":{
				"KHR_materials_emissive_strength":{
					"emissiveStrength":20
				}
			},
			"name":"Material.005",
			"pbrMetallicRoughness":{
				"baseColorFactor":[
					0,
					0,
					0,
					1
				]
			}
		}
	],
	"meshes":[
		{
			"name":"Circle",
			"primitives":[
				{
					"attributes":{
						"POSITION":0,
						"TEXCOORD_0":1,
						"NORMAL":2
					},
					"indices":3
				}
			]
		},
		{
			"name":"Icosphere",
			"primitives":[
				{
					"attributes":{
						"POSITION":4,
						"TEXCOORD_0":5,
						"NORMAL":6
					},
					"indices":7,
					"material":0
				}
			]
		},
		{
			"name":"Circle.002",
			"primitives":[
				{
					"attributes":{
						"POSITION":8,
						"TEXCOORD_0":9,
						"NORMAL":10
					},
					"indices":3
				}
			]
		},
		{
			"name":"Circle.004",
			"primitives":[
				{
					"attributes":{
						"POSITION":11,
						"TEXCOORD_0":12,
						"NORMAL":13
					},
					"indices":14
				}
			]
		},
		{
			"name":"Cylinder",
			"primitives":[
				{
					"attributes":{
						"POSITION":15,
						"TEXCOORD_0":16,
						"NORMAL":17
					},
					"indices":18
				}
			]
		},
		{
			"name":"Cube.004",
			"primitives":[
				{
					"attributes":{
						"POSITION":19,
						"TEXCOORD_0":20,
						"NORMAL":21
					},
					"indices":22
				}
			]
		},
		{
			"name":"Cylinder.002",
			"primitives":[
				{
					"attributes":{
						"POSITION":23,
						"TEXCOORD_0":24,
						"NORMAL":25
					},
					"indices":26
				}
			]
		},
		{
			"name":"Icosphere.001",
			"primitives":[
				{
					"attributes":{
						"POSITION":27,
						"TEXCOORD_0":28,
						"NORMAL":29
					},
					"indices":7,
					"material":1
				}
			]
		},
		{
			"name":"BezierCircle",
			"primitives":[
				{
					"attributes":{
						"POSITION":30,
						"TEXCOORD_0":31,
						"NORMAL":32
					},
					"indices":33,
					"material":2
				}
			]
		},
		{
			"name":"BezierCircle.001",
			"primitives":[
				{
					"attributes":{
						"POSITION":34,
						"TEXCOORD_0":35,
						"NORMAL":36
					},
					"indices":33,
					"material":2
				}
			]
		},
		{
			"name":"BezierCircle.002",
			"primitives":[
				{
					"attributes":{
						"POSITION":37,
						"TEXCOORD_0":38,
						"NORMAL":39
					},
					"indices":33,
					"material":2
				}
			]
		}
	],
	"accessors":[
		{
			"bufferView":0,
			"componentType":5126,
			"count":170,
			"max":[
				5.815185070037842,
				-0.03264705836772919,
				5.812206268310547
			],
			"min":[
				-5.815185070037842,
				-0.03264705836772919,
				-5.816178321838379
			],
			"type":"VEC3"
		},
		{
			"bufferView":1,
			"componentType":5126,
			"count":170,
			"type":"VEC2"
		},
		{
			"bufferView":2,
			"componentType":5126,
			"count":170,
			"type":"VEC3"
		},
		{
			"bufferView":3,
			"componentType":5123,
			"count":510,
			"type":"SCALAR"
		},
		{
			"bufferView":4,
			"componentType":5126,
			"count":5083,
			"max":[
				0.999592661857605,
				0.9999999403953552,
				1
			],
			"min":[
				-0.999592661857605,
				-1,
				-0.9999999403953552
			],
			"type":"VEC3"
		},
		{
			"bufferView":5,
			"componentType":5126,
			"count":5083,
			"type":"VEC2"
		},
		{
			"bufferView":6,
			"componentType":5126,
			"count":5083,
			"type":"VEC3"
		},
		{
			"bufferView":7,
			"componentType":5123,
			"count":29040,
			"type":"SCALAR"
		},
		{
			"bufferView":8,
			"componentType":5126,
			"count":170,
			"max":[
				4.091440200805664,
				0.004135517403483391,
				4.0893449783325195
			],
			"min":[
				-4.091440200805664,
				0.004135299939662218,
				-4.092140197753906
			],
			"type":"VEC3"
		},
		{
			"bufferView":9,
			"componentType":5126,
			"count":170,
			"type":"VEC2"
		},
		{
			"bufferView":10,
			"componentType":5126,
			"count":170,
			"type":"VEC3"
		},
		{
			"bufferView":11,
			"componentType":5126,
			"count":2385,
			"max":[
				6.762605667114258,
				0.02677779458463192,
				6.759140968322754
			],
			"min":[
				-6.762605667114258,
				-2.493223190307617,
				-6.763761520385742
			],
			"type":"VEC3"
		},
		{
			"bufferView":12,
			"componentType":5126,
			"count":2385,
			"type":"VEC2"
		},
		{
			"bufferView":13,
			"componentType":5126,
			"count":2385,
			"type":"VEC3"
		},
		{
			"bufferView":14,
			"componentType":5123,
			"count":4080,
			"type":"SCALAR"
		},
		{
			"bufferView":15,
			"componentType":5126,
			"count":48496,
			"max":[
				3.002639055252075,
				0.11056715995073318,
				2.9942498207092285
			],
			"min":[
				-3.001420736312866,
				-0.11056715250015259,
				-3.0043623447418213
			],
			"type":"VEC3"
		},
		{
			"bufferView":16,
			"componentType":5126,
			"count":48496,
			"type":"VEC2"
		},
		{
			"bufferView":17,
			"componentType":5126,
			"count":48496,
			"type":"VEC3"
		},
		{
			"bufferView":18,
			"componentType":5123,
			"count":91584,
			"type":"SCALAR"
		},
		{
			"bufferView":19,
			"componentType":5126,
			"count":584160,
			"max":[
				2.6484508514404297,
				0.10101763904094696,
				2.644866466522217
			],
			"min":[
				-2.650916337966919,
				0,
				-2.641019582748413
			],
			"type":"VEC3"
		},
		{
			"bufferView":20,
			"componentType":5126,
			"count":584160,
			"type":"VEC2"
		},
		{
			"bufferView":21,
			"componentType":5126,
			"count":584160,
			"type":"VEC3"
		},
		{
			"bufferView":22,
			"componentType":5125,
			"count":877176,
			"type":"SCALAR"
		},
		{
			"bufferView":23,
			"componentType":5126,
			"count":13260,
			"max":[
				4.119912147521973,
				0.019992344081401825,
				4.0994343757629395
			],
			"min":[
				-4.118102550506592,
				-0.019999172538518906,
				-4.1112751960754395
			],
			"type":"VEC3"
		},
		{
			"bufferView":24,
			"componentType":5126,
			"count":13260,
			"type":"VEC2"
		},
		{
			"bufferView":25,
			"componentType":5126,
			"count":13260,
			"type":"VEC3"
		},
		{
			"bufferView":26,
			"componentType":5123,
			"count":26208,
			"type":"SCALAR"
		},
		{
			"bufferView":27,
			"componentType":5126,
			"count":5083,
			"max":[
				0.999592661857605,
				0.9999999403953552,
				1
			],
			"min":[
				-0.999592661857605,
				-1,
				-0.9999999403953552
			],
			"type":"VEC3"
		},
		{
			"bufferView":28,
			"componentType":5126,
			"count":5083,
			"type":"VEC2"
		},
		{
			"bufferView":29,
			"componentType":5126,
			"count":5083,
			"type":"VEC3"
		},
		{
			"bufferView":30,
			"componentType":5126,
			"count":3341,
			"max":[
				2.1214065551757812,
				0.008451823145151138,
				2.1214065551757812
			],
			"min":[
				-2.1214065551757812,
				-0.008451823145151138,
				-2.1214067935943604
			],
			"type":"VEC3"
		},
		{
			"bufferView":31,
			"componentType":5126,
			"count":3341,
			"type":"VEC2"
		},
		{
			"bufferView":32,
			"componentType":5126,
			"count":3341,
			"type":"VEC3"
		},
		{
			"bufferView":33,
			"componentType":5123,
			"count":18432,
			"type":"SCALAR"
		},
		{
			"bufferView":34,
			"componentType":5126,
			"count":3341,
			"max":[
				2.1214065551757812,
				0.008451823145151138,
				2.1214065551757812
			],
			"min":[
				-2.1214065551757812,
				-0.008451823145151138,
				-2.1214067935943604
			],
			"type":"VEC3"
		},
		{
			"bufferView":35,
			"componentType":5126,
			"count":3341,
			"type":"VEC2"
		},
		{
			"bufferView":36,
			"componentType":5126,
			"count":3341,
			"type":"VEC3"
		},
		{
			"bufferView":37,
			"componentType":5126,
			"count":3341,
			"max":[
				2.1214065551757812,
				0.008451823145151138,
				2.1214065551757812
			],
			"min":[
				-2.1214065551757812,
				-0.008451823145151138,
				-2.1214067935943604
			],
			"type":"VEC3"
		},
		{
			"bufferView":38,
			"componentType":5126,
			"count":3341,
			"type":"VEC2"
		},
		{
			"bufferView":39,
			"componentType":5126,
			"count":3341,
			"type":"VEC3"
		}
	],
	"bufferViews":[
		{
			"buffer":0,
			"byteLength":2040,
			"byteOffset":0,
			"target":34962
		},
		{
			"buffer":0,
			"byteLength":1360,
			"byteOffset":2040,
			"target":34962
		},
		{
			"buffer":0,
			"byteLength":2040,
			"byteOffset":3400,
			"target":34962
		},
		{
			"buffer":0,
			"byteLength":1020,
			"byteOffset":5440,
			"target":34963
		},
		{
			"buffer":0,
			"byteLength":60996,
			"byteOffset":6460,
			"target":34962
		},
		{
			"buffer":0,
			"byteLength":40664,
			"byteOffset":67456,
			"target":34962
		},
		{
			"buffer":0,
			"byteLength":60996,
			"byteOffset":108120,
			"target":34962
		},
		{
			"buffer":0,
			"byteLength":58080,
			"byteOffset":169116,
			"target":34963
		},
		{
			"buffer":0,
			"byteLength":2040,
			"byteOffset":227196,
			"target":34962
		},
		{
			"buffer":0,
			"byteLength":1360,
			"byteOffset":229236,
			"target":34962
		},
		{
			"buffer":0,
			"byteLength":2040,
			"byteOffset":230596,
			"target":34962
		},
		{
			"buffer":0,
			"byteLength":28620,
			"byteOffset":232636,
			"target":34962
		},
		{
			"buffer":0,
			"byteLength":19080,
			"byteOffset":261256,
			"target":34962
		},
		{
			"buffer":0,
			"byteLength":28620,
			"byteOffset":280336,
			"target":34962
		},
		{
			"buffer":0,
			"byteLength":8160,
			"byteOffset":308956,
			"target":34963
		},
		{
			"buffer":0,
			"byteLength":581952,
			"byteOffset":317116,
			"target":34962
		},
		{
			"buffer":0,
			"byteLength":387968,
			"byteOffset":899068,
			"target":34962
		},
		{
			"buffer":0,
			"byteLength":581952,
			"byteOffset":1287036,
			"target":34962
		},
		{
			"buffer":0,
			"byteLength":183168,
			"byteOffset":1868988,
			"target":34963
		},
		{
			"buffer":0,
			"byteLength":7009920,
			"byteOffset":2052156,
			"target":34962
		},
		{
			"buffer":0,
			"byteLength":4673280,
			"byteOffset":9062076,
			"target":34962
		},
		{
			"buffer":0,
			"byteLength":7009920,
			"byteOffset":13735356,
			"target":34962
		},
		{
			"buffer":0,
			"byteLength":3508704,
			"byteOffset":20745276,
			"target":34963
		},
		{
			"buffer":0,
			"byteLength":159120,
			"byteOffset":24253980,
			"target":34962
		},
		{
			"buffer":0,
			"byteLength":106080,
			"byteOffset":24413100,
			"target":34962
		},
		{
			"buffer":0,
			"byteLength":159120,
			"byteOffset":24519180,
			"target":34962
		},
		{
			"buffer":0,
			"byteLength":52416,
			"byteOffset":24678300,
			"target":34963
		},
		{
			"buffer":0,
			"byteLength":60996,
			"byteOffset":24730716,
			"target":34962
		},
		{
			"buffer":0,
			"byteLength":40664,
			"byteOffset":24791712,
			"target":34962
		},
		{
			"buffer":0,
			"byteLength":60996,
			"byteOffset":24832376,
			"target":34962
		},
		{
			"buffer":0,
			"byteLength":40092,
			"byteOffset":24893372,
			"target":34962
		},
		{
			"buffer":0,
			"byteLength":26728,
			"byteOffset":24933464,
			"target":34962
		},
		{
			"buffer":0,
			"byteLength":40092,
			"byteOffset":24960192,
			"target":34962
		},
		{
			"buffer":0,
			"byteLength":36864,
			"byteOffset":25000284,
			"target":34963
		},
		{
			"buffer":0,
			"byteLength":40092,
			"byteOffset":25037148,
			"target":34962
		},
		{
			"buffer":0,
			"byteLength":26728,
			"byteOffset":25077240,
			"target":34962
		},
		{
			"buffer":0,
			"byteLength":40092,
			"byteOffset":25103968,
			"target":34962
		},
		{
			"buffer":0,
			"byteLength":40092,
			"byteOffset":25144060,
			"target":34962
		},
		{
			"buffer":0,
			"byteLength":26728,
			"byteOffset":25184152,
			"target":34962
		},
		{
			"buffer":0,
			"byteLength":40092,
			"byteOffset":25210880,
			"target":34962
		}
	],
	"buffers":[
		{
			"byteLength":25250972,
			"uri":"hole2lend.bin"
		}
	]
}
